#!OML:ASF H:\Terrain\Patient Classification 1\Takeo\Monday\TakeoMonday.ASF
:FULLY-SPECIFIED
:DEGREES
1970
root 10.2571 16.4481 -3.13125 6.94002 -34.1082 -0.541037
lowerback 21.696 5.52787 -3.20092
upperback 11.7655 6.00414 -6.1015
thorax 1.20837 2.92453 -5.97524
lowerneck -17.0609 -1.62462 -3.40924
upperneck -0.350198 -1.76555 4.78938
head 2.99817 -0.696726 2.07691
rclavicle -5.64548e-014 -4.77083e-015
rhumerus 72.9678 61.236 -50.543
rradius 36.1638
rwrist 30.3682
rhand -9.19828 -1.74378
rfingers 7.12502
rthumb 16.7556 -31.0407
lclavicle -5.64548e-014 -4.77083e-015
lhumerus 34.3576 44.0139 108.349
lradius 42.3291
lwrist 83.6524
lhand -8.35238 31.9676
lfingers 7.12502
lthumb 17.5698 421.194
rfemur -25.3686 4.22058 19.6772
rtibia 54.6418
rfoot -30.1843 -19.1965
rtoes -12.0165
lfemur -41.7344 15.9862 -17.7484
ltibia 55.3475
lfoot -14.5247 11.2821
ltoes -7.16268
1971
root 10.2961 16.447 -3.15484 7.06931 -35.8018 -0.954867
lowerback 21.7215 5.49912 -3.49628
upperback 11.7823 5.88563 -6.11269
thorax 1.17602 2.83827 -5.80097
lowerneck -16.7682 -0.944178 -3.06738
upperneck -0.763843 -0.887951 4.09541
head 2.74307 -0.292641 1.84021
rclavicle 4.85035e-014 -2.78299e-014
rhumerus 71.8991 61.0955 -51.4261
rradius 36.2354
rwrist 30.5589
rhand -9.63851 -1.9885
rfingers 7.12502
rthumb 16.3317 -31.3208
lclavicle 4.85035e-014 -2.78299e-014
lhumerus 34.6614 43.6125 108.392
lradius 42.198
lwrist 83.6349
lhand -8.47533 32.4931
lfingers 7.12502
lthumb 17.4514 421.73
rfemur -25.6478 5.23927 19.7996
rtibia 54.6478
rfoot -29.9778 -18.6556
rtoes -12.0858
lfemur -41.482 16.764 -17.2419
ltibia 55.4679
lfoot -14.7375 11.815
ltoes -4.42653
1972
root 10.338 16.4476 -3.15932 6.98282 -37.7429 -1.15275
lowerback 21.7269 5.52232 -3.79913
upperback 11.7926 5.82624 -6.27954
thorax 1.17248 2.78683 -5.80351
lowerneck -16.6809 -0.364336 -2.58671
upperneck -0.846999 -0.178409 3.42351
head 2.65851 0.0333834 1.57776
rclavicle -4.77083e-014 3.97569e-014
rhumerus 71.061 60.9683 -52.1242
rradius 36.1966
rwrist 29.9396
rhand -10.535 -2.32376
rfingers 7.12502
rthumb 15.4684 -31.7249
lclavicle -4.77083e-014 3.97569e-014
lhumerus 34.512 42.7764 107.658
lradius 41.8746
lwrist 83.3261
lhand -8.22268 32.4967
lfingers 7.12502
lthumb 17.6946 421.712
rfemur -25.7248 6.31734 19.6451
rtibia 54.5304
rfoot -29.4508 -18.0246
rtoes -12.0252
lfemur -40.9549 17.768 -17.0064
ltibia 55.6792
lfoot -15.2789 12.3704
ltoes -1.48574
1973
root 10.3807 16.4512 -3.17996 7.28475 -39.5154 -1.7536
lowerback 21.7047 5.42729 -3.87461
upperback 11.8022 5.66413 -6.35687
thorax 1.18281 2.69274 -5.81134
lowerneck -16.8255 0.131785 -2.31012
upperneck -0.772512 0.454579 2.85287
head 2.68534 0.326975 1.38603
rclavicle -9.46215e-014 5.48646e-014
rhumerus 69.8769 60.7738 -53.3418
rradius 36.139
rwrist 29.7848
rhand -10.8079 -2.43307
rfingers 7.12502
rthumb 15.2055 -31.8543
lclavicle -9.46215e-014 5.48646e-014
lhumerus 34.6108 42.1537 107.125
lradius 41.512
lwrist 82.7274
lhand -6.20401 33.075
lfingers 7.12502
lthumb 19.6362 422.103
rfemur -25.9557 7.30106 19.8778
rtibia 54.3513
rfoot -28.6846 -17.471
rtoes -12.1029
lfemur -40.7408 18.8089 -16.506
ltibia 55.9686
lfoot -15.6525 13.0744
ltoes -1.71461
1974
root 10.4229 16.4479 -3.20805 7.75125 -41.131 -2.5764
lowerback 21.7655 5.28281 -3.87674
upperback 11.7895 5.44742 -6.34965
thorax 1.11907 2.57207 -5.76456
lowerneck -16.5888 0.750042 -2.05833
upperneck -1.06289 1.25502 2.24187
head 2.5176 0.700332 1.18971
rclavicle -3.18055e-014 3.18055e-015
rhumerus 67.5778 60.5307 -55.8512
rradius 36.1687
rwrist 30.5689
rhand -10.7253 -2.5967
rfingers 7.12502
rthumb 15.2851 -32.0119
lclavicle -3.18055e-014 3.18055e-015
lhumerus 35.1472 41.7808 107.221
lradius 41.2376
lwrist 82.1065
lhand -5.27988 33.3001
lfingers 7.12502
lthumb 20.5245 422.235
rfemur -26.2471 8.33139 20.3133
rtibia 54.2388
rfoot -28.3373 -16.7831
rtoes -11.4047
lfemur -40.5918 19.6982 -15.7886
ltibia 56.2121
lfoot -15.8257 13.8125
ltoes -3.1776
1975
root 10.4675 16.4417 -3.23307 8.08519 -42.6952 -2.82075
lowerback 21.5652 5.1874 -4.33926
upperback 11.7044 5.23638 -6.34394
thorax 1.0643 2.43295 -5.4422
lowerneck -16.4947 1.30502 -1.81536
upperneck -1.14879 1.97593 1.51975
head 2.45796 1.03126 0.957085
rclavicle -5.88403e-014 8.74653e-014
rhumerus 65.3023 60.2035 -58.1316
rradius 36.253
rwrist 31.1602
rhand -11.6264 -2.58483
rfingers 7.12502
rthumb 14.417 -32.0641
lclavicle -5.88403e-014 8.74653e-014
lhumerus 35.1863 41.1147 107.246
lradius 41.4139
lwrist 81.6693
lhand -6.07143 32.9095
lfingers 7.12502
lthumb 19.7637 421.925
rfemur -26.868 9.31046 20.1708
rtibia 54.2039
rfoot -28.1444 -15.9993
rtoes -10.4287
lfemur -40.5964 20.354 -15.6155
ltibia 56.3607
lfoot -15.9697 14.4095
ltoes -3.16165
